# xmcd CD database file
#
# Track frame offsets:
#	150
#	21805
#	45302
#	67190
#	92160
#	105822
#	129610
#	146957
#	163952
#	182395
#	197440
#
# Disc length: 2855 seconds
#
# Revision: 2
# Processed by: cddbd v1.4PL0 Copyright (c) Steve Scherf et al.
# Submitted via: CDex 1.50
#
DISCID=920b250b
DTITLE=Björn J:son Lindh and Torbjörn Carlsson - Inner Beauty
DYEAR=2001
DGENRE=New Age
TTITLE0=Elk river morning
TTITLE1=Lullaby
TTITLE2=Over the hills
TTITLE3=Queen of fairies
TTITLE4=The lady
TTITLE5=Flutes for Kiki
TTITLE6=Ophelia
TTITLE7=Rue Couchy 22
TTITLE8=Autumn tale
TTITLE9=Annie's theme
TTITLE10=Presence 2 - Invitation to Copenhagen
EXTD=\n YEAR: 2001
EXTT0=
EXTT1=
EXTT2=
EXTT3=
EXTT4=
EXTT5=
EXTT6=
EXTT7=
EXTT8=
EXTT9=
EXTT10=
PLAYORDER=
